# xmcd
#
# Track frame offsets: 
#        150
#        13118
#        28283
#        42469
#        58076
#        73867
#        85730
#        98643
#        120192
#        141994
#        151714
#        163810
#        175748
#        186110
#        198117
#        217385
#        231488
#        252077
#
# Disc length: 3630 seconds
#
# Revision: 2
# Processed by: cddbd v1.5.2PL0 Copyright (c) Steve Scherf et al.
# Submitted via: ExactAudioCopy v1.0b1
#
DISCID=fe0e2c12
DTITLE=B.B. King - Let The Good Times Roll
DYEAR=1999
DGENRE=Blues
TTITLE0=Ain't Nobody Here But Us Chickens
TTITLE1=Is You Is, Or Is You Ain't (My Baby)
TTITLE2=Beware, Brother, Beware
TTITLE3=Somebody Done Changed The Lock On My Door
TTITLE4=Ain't That Just Like A Women
TTITLE5=Choo Choo Ch'Boogie
TTITLE6=Buzz Me
TTITLE7=Early In The Mornin'
TTITLE8=I'm Gonna Move To The Outskirts Of Town
TTITLE9=Jack, You're Dead!
TTITLE10=Knock Me A Kiss
TTITLE11=Let The Good Times Roll
TTITLE12=Caldonia
TTITLE13=It's A Great, Great Pleasure
TTITLE14=Rusty Dusty Blues (Mama Mama Blues)
TTITLE15=Sure Had A Wonderful Time Last Night
TTITLE16=Saturday Night Fish Fry
TTITLE17=Nobody Knows You When You're Down And Out
EXTD=The Music Of Louis Jordan\nMCA Records 1999
EXTT0=
EXTT1=
EXTT2=
EXTT3=
EXTT4=
EXTT5=
EXTT6=
EXTT7=
EXTT8=
EXTT9=
EXTT10=
EXTT11=
EXTT12=
EXTT13=
EXTT14=
EXTT15=
EXTT16=
EXTT17=
PLAYORDER=
